<svg width="40" height="40" viewBox="0 0 40 40" fill="none" xmlns="http://www.w3.org/2000/svg">
<path d="M25.0004 20L9.37875 35.6217C9.05045 35.9501 8.66067 36.2106 8.23168 36.3884C7.80269 36.5662 7.34288 36.6577 6.87851 36.6578C5.94067 36.6579 5.04118 36.2855 4.37792 35.6225C3.71466 34.9595 3.34195 34.0601 3.3418 33.1223C3.34164 32.1844 3.71405 31.2849 4.37709 30.6217L20.0004 15" stroke="white" stroke-width="2.5" stroke-linecap="round" stroke-linejoin="round"/>
<path d="M30 25.0007L36.6667 18.334" stroke="white" stroke-width="2.5" stroke-linecap="round" stroke-linejoin="round"/>
<path d="M35.8333 19.1667L32.6433 15.9767C32.0182 15.3517 31.6669 14.504 31.6667 13.62V13.0467C31.6665 12.1627 31.3152 11.315 30.69 10.69L27.9283 7.92833C26.0535 6.05386 23.5111 5.00057 20.86 5H15L17.0717 7.07167C18.9465 8.94687 19.9999 11.49 20 14.1417V16.6667L23.3333 20H25.2867C26.1706 20.0002 27.0184 20.3515 27.6433 20.9767L30.8333 24.1667" stroke="white" stroke-width="2.5" stroke-linecap="round" stroke-linejoin="round"/>
</svg>
